<svg xmlns="http://www.w3.org/2000/svg" width="512" height="512" viewBox="0 0 512 512">
<defs>
<radialGradient id="rg" cx="50%" cy="45%" r="60%"><stop offset="0" stop-color="#ff3ea5" stop-opacity=".22"/><stop offset=".6" stop-color="#ff3ea5" stop-opacity=".05"/><stop offset="1" stop-color="#07040f" stop-opacity="0"/></radialGradient>
<pattern id="sl" width="8" height="8" patternUnits="userSpaceOnUse"><rect width="8" height="2" fill="#ffffff" fill-opacity=".035"/></pattern>
<filter id="gl" x="-30%" y="-30%" width="160%" height="160%"><feGaussianBlur stdDeviation="4" result="b"/><feMerge><feMergeNode in="b"/><feMergeNode in="SourceGraphic"/></feMerge></filter>
</defs>
<rect x="16" y="16" width="480" height="480" rx="108" fill="#07040f"/><rect x="16" y="16" width="480" height="480" rx="108" fill="url(#rg)"/><rect x="16" y="16" width="480" height="480" rx="108" fill="url(#sl)"/>
<rect x="20" y="20" width="472" height="472" rx="104" fill="none" stroke="#ff3ea5" stroke-opacity=".35" stroke-width="6"/>
<g transform="translate(256 262) scale(1.3) translate(-256 -262)"><g filter="url(#gl)">
<rect x="160" y="132" width="20" height="252" fill="#c9c3e6"/><rect x="152" y="120" width="36" height="18" fill="#22d3ee"/>
<rect x="190" y="150" width="34" height="34" fill="#ff3ea5"/><rect x="190" y="218" width="34" height="34" fill="#ff3ea5"/><rect x="224" y="174" width="34" height="34" fill="#ff3ea5"/><rect x="224" y="242" width="34" height="34" fill="#ff3ea5"/><rect x="258" y="136" width="34" height="34" fill="#ff3ea5"/><rect x="258" y="204" width="34" height="34" fill="#ff3ea5"/><rect x="292" y="176" width="34" height="34" fill="#ff3ea5"/><rect x="292" y="244" width="34" height="34" fill="#ff3ea5"/><rect x="326" y="152" width="34" height="34" fill="#ff3ea5"/><rect x="326" y="220" width="34" height="34" fill="#ff3ea5"/>
<polyline points="190,150 224,140 258,136 292,142 326,152 360,152 360,288 326,288 292,278 258,272 224,276 190,286 190,150" fill="none" stroke="#ff3ea5" stroke-width="6"/>
<rect x="132" y="384" width="76" height="16" fill="#22d3ee"/><rect x="226" y="384" width="28" height="16" fill="#22d3ee" fill-opacity=".6"/><rect x="270" y="384" width="28" height="16" fill="#22d3ee" fill-opacity=".35"/><rect x="314" y="384" width="28" height="16" fill="#22d3ee" fill-opacity=".18"/>
</g></g></svg>